<?xml version="1.0" encoding="UTF-8" standalone="no"?>
<svg width="1024" height="1024" viewBox="0 0 1024 1024" fill="none" xmlns="http://www.w3.org/2000/svg">
  <circle cx="512" cy="512" r="460" fill="#3498db" opacity="0.9"/>
  <path d="M512 200C512 200 350 350 350 520C350 593.596 380.343 663.82 434.315 717.315C488.287 770.809 559.057 800 633.25 800C707.443 800 778.213 770.809 832.185 717.315C886.157 663.82 916.5 593.596 916.5 520C916.5 350 754.5 200 754.5 200H512Z" fill="#2980b9"/>
  <path d="M512 252C512 252 382 377 382 517C382 577.065 406.42 634.725 450.582 678.582C494.744 722.44 552.753 746.6 613.166 746.6C673.58 746.6 731.589 722.44 775.751 678.582C819.913 634.725 844.333 577.065 844.333 517C844.333 377 714.333 252 714.333 252H512Z" fill="#3498db"/>
  <path d="M511.999 305C511.999 305 414 405.5 414 515C414 563.081 433.099 609.113 467.23 643.02C501.36 676.926 547.705 695.9 596.1 695.9C644.495 695.9 690.839 676.926 724.97 643.02C759.1 609.113 778.199 563.081 778.199 515C778.199 405.5 680.199 305 680.199 305H511.999Z" fill="#60a5fa"/>
</svg>
